# xmcd
#
# Track frame offsets: 
#        150
#        20530
#        45523
#        51716
#        82125
#        101587
#        122402
#        142688
#        167514
#        197935
#        217189
#
# Disc length: 3165 seconds
#
# Revision: 0
# Processed by: cddbd v1.5.2PL0 Copyright (c) Steve Scherf et al.
# Submitted via: ExactAudioCopy v0.99pb5
#
DISCID=9b0c5b0b
DTITLE=The Orb Featuring Lee Scratch Perry - More Tales From The Orbse
DTITLE=rvatory
DYEAR=2013
DGENRE=Electronic
TTITLE0=Fussball
TTITLE1=Africa
TTITLE2=Tight Interlude
TTITLE3=Making Love In Dub
TTITLE4=No Ice Age
TTITLE5=Don't Rush I
TTITLE6=Fussball (Instrumental)
TTITLE7=Africa (Instrumental)
TTITLE8=Making Love In Dub (Instrumental)
TTITLE9=No Ice Age (Instrumental)
TTITLE10=Don't Rush I (Instrumental)
EXTD=
EXTT0=
EXTT1=
EXTT2=
EXTT3=
EXTT4=
EXTT5=
EXTT6=
EXTT7=
EXTT8=
EXTT9=
EXTT10=
PLAYORDER=
